<svg width="547" height="150" viewBox="0 0 547 150" fill="none" xmlns="http://www.w3.org/2000/svg">
<path d="M279 74.25C279 77.7601 275.25 81.125 271.5 81.125C269.636 81.1263 267.839 80.4946 266.453 79.3518C265.068 78.2091 264.194 76.6364 264 74.9375H238.5C238.102 74.9375 237.721 74.7926 237.439 74.5348C237.158 74.2769 237 73.9272 237 73.5625V52.25C237 51.8853 237.158 51.5356 237.439 51.2777C237.721 51.0199 238.102 50.875 238.5 50.875H270C270.398 50.875 270.779 51.0199 271.061 51.2777C271.342 51.5356 271.5 51.8853 271.5 52.25V67.375C273.473 67.4232 275.35 68.163 276.745 69.442C278.14 70.721 278.947 72.4418 279 74.25Z" fill="#FAFAFA"/>
<path d="M267 56.375C267 56.9189 266.824 57.4506 266.494 57.9028C266.165 58.3551 265.696 58.7075 265.148 58.9157C264.6 59.1238 263.997 59.1783 263.415 59.0722C262.833 58.9661 262.298 58.7041 261.879 58.3195C261.459 57.9349 261.173 57.4449 261.058 56.9115C260.942 56.3781 261.001 55.8251 261.228 55.3226C261.455 54.8201 261.84 54.3906 262.333 54.0885C262.827 53.7863 263.407 53.625 264 53.625C264.796 53.625 265.559 53.9147 266.121 54.4305C266.684 54.9462 267 55.6457 267 56.375Z" fill="#E0E0E0"/>
<path d="M237.989 73.8174L249.155 61.1734C249.226 61.0929 249.316 61.0281 249.418 60.984C249.52 60.9399 249.632 60.9175 249.745 60.9185C249.858 60.9195 249.969 60.9439 250.071 60.9899C250.172 61.0358 250.26 61.1021 250.33 61.1839L255 66.6875L259.691 62.3874C259.763 62.3214 259.848 62.2696 259.943 62.235C260.038 62.2005 260.139 62.1839 260.24 62.1864C260.342 62.1888 260.442 62.2102 260.535 62.2493C260.627 62.2883 260.71 62.3442 260.778 62.4136L267 68.75C267 68.75 264 70.125 264 74.9375H238.5C238.36 74.9337 238.224 74.8931 238.109 74.8205C237.994 74.748 237.904 74.6465 237.85 74.5284C237.796 74.4102 237.781 74.2803 237.805 74.1542C237.83 74.0281 237.894 73.9112 237.989 73.8174Z" fill="#E0E0E0"/>
<path d="M276 74.25C276 74.4323 275.921 74.6072 275.78 74.7361C275.64 74.8651 275.449 74.9375 275.25 74.9375H272.25V77.6875C272.25 77.8698 272.171 78.0447 272.03 78.1736C271.89 78.3026 271.699 78.375 271.5 78.375C271.301 78.375 271.11 78.3026 270.97 78.1736C270.829 78.0447 270.75 77.8698 270.75 77.6875V74.9375H267.75C267.551 74.9375 267.36 74.8651 267.22 74.7361C267.079 74.6072 267 74.4323 267 74.25C267 74.0677 267.079 73.8928 267.22 73.7639C267.36 73.6349 267.551 73.5625 267.75 73.5625H270.75V70.8125C270.75 70.6302 270.829 70.4553 270.97 70.3264C271.11 70.1974 271.301 70.125 271.5 70.125C271.699 70.125 271.89 70.1974 272.03 70.3264C272.171 70.4553 272.25 70.6302 272.25 70.8125V73.5625H275.25C275.449 73.5625 275.64 73.6349 275.78 73.7639C275.921 73.8928 276 74.0677 276 74.25ZM279.75 74.25C279.751 76.1359 278.982 77.9539 277.596 79.3472C276.21 80.7405 274.305 81.6085 272.256 81.7807C270.208 81.9529 268.163 81.417 266.523 80.2781C264.883 79.1392 263.767 77.4795 263.393 75.625H238.5C237.903 75.6244 237.332 75.4069 236.91 75.0202C236.488 74.6336 236.251 74.1093 236.25 73.5625V52.25C236.251 51.7032 236.488 51.1789 236.91 50.7923C237.332 50.4056 237.903 50.1881 238.5 50.1875H270C270.597 50.1881 271.168 50.4056 271.59 50.7923C272.012 51.1789 272.249 51.7032 272.25 52.25V66.7224C274.298 66.8955 276.202 67.7632 277.59 69.1554C278.977 70.5477 279.747 72.3644 279.75 74.25ZM237.75 52.25V73.15L248.545 60.7806C248.69 60.6146 248.875 60.4817 249.085 60.3922C249.295 60.3027 249.525 60.2592 249.757 60.265C249.989 60.2708 250.216 60.3257 250.421 60.4256C250.626 60.5254 250.802 60.6674 250.937 60.8404L255.002 65.7139L259.127 61.9321C259.276 61.7945 259.455 61.6876 259.652 61.6184C259.849 61.5493 260.06 61.5196 260.271 61.5312C260.481 61.542 260.687 61.5933 260.875 61.6819C261.062 61.7704 261.227 61.8942 261.359 62.0452L267.122 67.8514C268.217 67.2172 269.46 66.8303 270.75 66.7224V52.25C270.75 52.0677 270.671 51.893 270.53 51.7641C270.389 51.6352 270.199 51.5627 270 51.5625H238.5C238.301 51.5627 238.111 51.6352 237.97 51.7641C237.829 51.893 237.75 52.0677 237.75 52.25ZM249.731 61.6575L238.711 74.25H260.233L249.731 61.6575ZM263.25 74.25C263.251 73.2037 263.489 72.169 263.95 71.2118C264.411 70.2545 265.084 69.3958 265.927 68.6902L260.219 62.9375L255.923 66.8187L262.121 74.25H263.25ZM278.25 74.25C278.25 73.0262 277.854 71.8299 277.112 70.8124C276.371 69.7949 275.317 69.0018 274.083 68.5335C272.85 68.0652 271.493 67.9426 270.183 68.1814C268.874 68.4201 267.671 69.0094 266.727 69.8748C265.783 70.7401 265.14 71.8426 264.88 73.0429C264.619 74.2431 264.753 75.4872 265.264 76.6179C265.775 77.7485 266.64 78.7148 267.75 79.3947C268.86 80.0746 270.165 80.4375 271.5 80.4375C273.29 80.4357 275.005 79.7832 276.271 78.6232C277.536 77.4632 278.248 75.8905 278.25 74.25ZM260.25 56.375C260.25 55.6951 260.47 55.0305 260.882 54.4652C261.294 53.8999 261.88 53.4593 262.565 53.1992C263.25 52.939 264.004 52.8709 264.732 53.0036C265.459 53.1362 266.127 53.4636 266.652 53.9443C267.176 54.4251 267.533 55.0376 267.678 55.7044C267.823 56.3712 267.748 57.0624 267.465 57.6905C267.181 58.3186 266.7 58.8555 266.083 59.2332C265.467 59.6109 264.742 59.8125 264 59.8125C263.006 59.8114 262.053 59.4489 261.35 58.8045C260.647 58.1601 260.251 57.2864 260.25 56.375ZM261.75 56.375C261.75 56.7829 261.882 57.1817 262.129 57.5209C262.376 57.86 262.728 58.1244 263.139 58.2805C263.55 58.4366 264.002 58.4775 264.439 58.3979C264.875 58.3183 265.276 58.1219 265.591 57.8334C265.906 57.545 266.12 57.1775 266.207 56.7774C266.294 56.3773 266.249 55.9626 266.079 55.5857C265.908 55.2088 265.62 54.8867 265.25 54.6601C264.88 54.4335 264.445 54.3125 264 54.3125C263.403 54.3131 262.832 54.5306 262.41 54.9173C261.988 55.3039 261.751 55.8282 261.75 56.375Z" fill="#E5E5E5"/>
<rect x="0.5" y="0.5" width="546" height="149" rx="3.5" stroke="#E5E5E5" stroke-dasharray="6 6"/>
<path d="M162.289 100L163.409 92.95H164.239L163.739 96.07H167.989L168.489 92.95H169.309L168.189 100H167.369L167.879 96.78H163.629L163.119 100H162.289ZM171.985 100.09C171.485 100.09 171.068 99.9833 170.735 99.77C170.402 99.5567 170.165 99.2467 170.025 98.84C169.892 98.4333 169.868 97.94 169.955 97.36C170.042 96.8267 170.208 96.3767 170.455 96.01C170.708 95.6367 171.022 95.3567 171.395 95.17C171.768 94.9833 172.188 94.89 172.655 94.89C173.162 94.89 173.578 94.9967 173.905 95.21C174.238 95.4233 174.472 95.7333 174.605 96.14C174.745 96.54 174.768 97.03 174.675 97.61C174.588 98.1433 174.418 98.5967 174.165 98.97C173.918 99.3367 173.608 99.6167 173.235 99.81C172.868 99.9967 172.452 100.09 171.985 100.09ZM172.045 99.43C172.505 99.43 172.898 99.2667 173.225 98.94C173.558 98.6133 173.775 98.1367 173.875 97.51C173.982 96.8567 173.915 96.3667 173.675 96.04C173.435 95.7067 173.075 95.54 172.595 95.54C172.128 95.54 171.732 95.7033 171.405 96.03C171.078 96.3567 170.865 96.8333 170.765 97.46C170.665 98.1133 170.728 98.6067 170.955 98.94C171.188 99.2667 171.552 99.43 172.045 99.43ZM171.255 94.51L172.475 93.19H173.235L174.225 94.51H173.675L172.815 93.66L171.795 94.51H171.255ZM171.745 92.94L171.305 92.92C171.358 92.58 171.468 92.3267 171.635 92.16C171.808 91.9867 172.028 91.9 172.295 91.9C172.442 91.9 172.572 91.9333 172.685 92C172.805 92.06 172.918 92.1233 173.025 92.19C173.118 92.25 173.205 92.3067 173.285 92.36C173.372 92.4067 173.462 92.43 173.555 92.43C173.708 92.43 173.825 92.3867 173.905 92.3C173.985 92.2133 174.052 92.0767 174.105 91.89L174.555 91.91C174.495 92.25 174.382 92.5067 174.215 92.68C174.048 92.8467 173.835 92.93 173.575 92.93C173.428 92.93 173.295 92.9 173.175 92.84C173.055 92.7733 172.942 92.7033 172.835 92.63C172.748 92.57 172.662 92.5167 172.575 92.47C172.488 92.4233 172.398 92.4 172.305 92.4C172.158 92.4 172.042 92.4433 171.955 92.53C171.868 92.6167 171.798 92.7533 171.745 92.94ZM180.025 100.09C179.485 100.09 179.105 99.9467 178.885 99.66C178.672 99.3733 178.608 98.9467 178.695 98.38L179.125 95.61H178.145L178.245 94.98H179.235L179.455 93.61L180.295 93.38L180.045 94.98H181.485L181.375 95.61H179.935L179.525 98.28C179.458 98.6733 179.478 98.96 179.585 99.14C179.698 99.3133 179.892 99.4 180.165 99.4C180.292 99.4 180.405 99.39 180.505 99.37C180.605 99.3433 180.698 99.3133 180.785 99.28L180.685 99.96C180.578 100 180.472 100.03 180.365 100.05C180.258 100.077 180.145 100.09 180.025 100.09ZM181.651 100L182.261 96.19C182.295 95.99 182.321 95.7867 182.341 95.58C182.361 95.3733 182.375 95.1733 182.381 94.98H183.171L183.091 96.2L182.931 96.21C183.045 95.91 183.195 95.6633 183.381 95.47C183.575 95.2767 183.795 95.1333 184.041 95.04C184.288 94.94 184.538 94.89 184.791 94.89C184.878 94.89 184.958 94.8933 185.031 94.9C185.111 94.9067 185.188 94.92 185.261 94.94L185.121 95.67C185.041 95.6367 184.958 95.6167 184.871 95.61C184.791 95.5967 184.698 95.59 184.591 95.59C184.291 95.59 184.025 95.6533 183.791 95.78C183.558 95.9067 183.368 96.08 183.221 96.3C183.075 96.52 182.981 96.7667 182.941 97.04L182.471 100H181.651ZM187.375 100.09C186.875 100.09 186.459 99.9833 186.125 99.77C185.792 99.5567 185.555 99.2467 185.415 98.84C185.282 98.4333 185.259 97.94 185.345 97.36C185.432 96.8267 185.599 96.3767 185.845 96.01C186.099 95.6367 186.412 95.3567 186.785 95.17C187.159 94.9833 187.579 94.89 188.045 94.89C188.552 94.89 188.969 94.9967 189.295 95.21C189.629 95.4233 189.862 95.7333 189.995 96.14C190.135 96.54 190.159 97.03 190.065 97.61C189.979 98.1433 189.809 98.5967 189.555 98.97C189.309 99.3367 188.999 99.6167 188.625 99.81C188.259 99.9967 187.842 100.09 187.375 100.09ZM187.435 99.43C187.895 99.43 188.289 99.2667 188.615 98.94C188.949 98.6133 189.165 98.1367 189.265 97.51C189.372 96.8567 189.305 96.3667 189.065 96.04C188.825 95.7067 188.465 95.54 187.985 95.54C187.519 95.54 187.122 95.7033 186.795 96.03C186.469 96.3567 186.255 96.8333 186.155 97.46C186.055 98.1133 186.119 98.6067 186.345 98.94C186.579 99.2667 186.942 99.43 187.435 99.43ZM188.975 95.48L188.585 95.2L188.615 94.98C188.902 94.9733 189.129 94.93 189.295 94.85C189.469 94.77 189.599 94.6467 189.685 94.48C189.772 94.3133 189.839 94.1 189.885 93.84L189.905 93.68H190.635L190.585 94.01C190.519 94.4567 190.349 94.8067 190.075 95.06C189.802 95.3067 189.435 95.4467 188.975 95.48ZM186.555 101.87L186.695 100.99H187.605L187.465 101.87H186.555ZM195.546 100.09C195.086 100.09 194.699 99.9833 194.386 99.77C194.072 99.5567 193.852 99.25 193.726 98.85C193.599 98.45 193.579 97.9667 193.666 97.4C193.799 96.6067 194.099 96.0033 194.566 95.59C195.032 95.17 195.592 94.96 196.246 94.96C196.686 94.96 197.056 95.0733 197.356 95.3C197.656 95.5267 197.839 95.8333 197.906 96.22L197.796 96.15L198.116 94.18H196.166L196.266 93.57H198.206L198.356 92.64H199.166L199.016 93.57H199.956L199.856 94.18H198.916L197.996 100H197.196L197.386 98.8L197.526 98.82C197.352 99.2133 197.096 99.5233 196.756 99.75C196.422 99.9767 196.019 100.09 195.546 100.09ZM195.766 99.43C196.226 99.43 196.622 99.27 196.956 98.95C197.289 98.63 197.506 98.1633 197.606 97.55C197.712 96.9167 197.646 96.4367 197.406 96.11C197.166 95.7833 196.802 95.62 196.316 95.62C195.849 95.62 195.449 95.78 195.116 96.1C194.789 96.42 194.576 96.8867 194.476 97.5C194.376 98.1333 194.442 98.6133 194.676 98.94C194.909 99.2667 195.272 99.43 195.766 99.43ZM199.562 100L200.352 94.98H201.162L200.372 100H199.562ZM200.442 93.84L200.592 92.93H201.582L201.432 93.84H200.442ZM199.262 101.87L199.402 100.99H200.312L200.172 101.87H199.262ZM201.945 100L202.555 96.14C202.581 95.9533 202.601 95.7633 202.615 95.57C202.635 95.37 202.648 95.1733 202.655 94.98H203.445L203.365 96.08L203.225 96.09C203.425 95.6967 203.698 95.4 204.045 95.2C204.398 94.9933 204.798 94.89 205.245 94.89C205.865 94.89 206.295 95.0667 206.535 95.42C206.775 95.7667 206.841 96.2733 206.735 96.94L206.255 100H205.445L205.925 96.95C206.005 96.45 205.961 96.0933 205.795 95.88C205.635 95.66 205.355 95.55 204.955 95.55C204.481 95.55 204.091 95.6933 203.785 95.98C203.478 96.2667 203.288 96.6433 203.215 97.11L202.755 100H201.945ZM207.804 100L208.974 92.64H209.784L209.224 96.09H209.084C209.284 95.6967 209.557 95.4 209.904 95.2C210.257 94.9933 210.657 94.89 211.104 94.89C211.724 94.89 212.154 95.0667 212.394 95.42C212.634 95.7667 212.701 96.2733 212.594 96.94L212.114 100H211.304L211.784 96.95C211.864 96.45 211.824 96.0933 211.664 95.88C211.504 95.66 211.221 95.55 210.814 95.55C210.341 95.55 209.951 95.6933 209.644 95.98C209.337 96.2667 209.147 96.6433 209.074 97.11L208.614 100H207.804ZM218.251 100.09C217.791 100.09 217.404 99.9833 217.091 99.77C216.778 99.55 216.558 99.2367 216.431 98.83C216.304 98.4233 216.284 97.9333 216.371 97.36C216.504 96.5533 216.804 95.94 217.271 95.52C217.738 95.1 218.298 94.89 218.951 94.89C219.391 94.89 219.761 95.0033 220.061 95.23C220.361 95.4567 220.544 95.7633 220.611 96.15H220.501L221.061 92.64H221.871L220.701 100H219.901L220.091 98.8H220.231C220.058 99.2 219.801 99.5167 219.461 99.75C219.128 99.9767 218.724 100.09 218.251 100.09ZM218.471 99.43C218.931 99.43 219.328 99.2667 219.661 98.94C219.994 98.6133 220.211 98.1367 220.311 97.51C220.418 96.8567 220.351 96.3667 220.111 96.04C219.871 95.7067 219.508 95.54 219.021 95.54C218.554 95.54 218.154 95.7033 217.821 96.03C217.494 96.3567 217.281 96.8333 217.181 97.46C217.081 98.1133 217.148 98.6067 217.381 98.94C217.614 99.2667 217.978 99.43 218.471 99.43ZM224.247 100.09C223.787 100.09 223.4 99.9833 223.087 99.77C222.774 99.55 222.554 99.2367 222.427 98.83C222.3 98.4233 222.28 97.9333 222.367 97.36C222.5 96.5533 222.8 95.94 223.267 95.52C223.734 95.1 224.294 94.89 224.947 94.89C225.387 94.89 225.757 95.0033 226.057 95.23C226.357 95.4567 226.54 95.7633 226.607 96.15L226.497 96.17L226.787 94.98H227.567C227.52 95.1733 227.47 95.37 227.417 95.57C227.37 95.7633 227.334 95.9533 227.307 96.14L226.697 100H225.887L226.077 98.8H226.227C226.054 99.2 225.797 99.5167 225.457 99.75C225.124 99.9767 224.72 100.09 224.247 100.09ZM224.467 99.43C224.927 99.43 225.324 99.2667 225.657 98.94C225.99 98.6133 226.207 98.1367 226.307 97.51C226.414 96.8567 226.347 96.3667 226.107 96.04C225.867 95.7067 225.504 95.54 225.017 95.54C224.55 95.54 224.15 95.7033 223.817 96.03C223.49 96.3567 223.277 96.8333 223.177 97.46C223.077 98.1133 223.144 98.6067 223.377 98.94C223.61 99.2667 223.974 99.43 224.467 99.43ZM223.657 101.87L223.797 100.99H224.707L224.567 101.87H223.657ZM228.263 100L228.873 96.14C228.9 95.9533 228.92 95.7633 228.933 95.57C228.953 95.37 228.966 95.1733 228.973 94.98H229.763L229.683 96.08L229.543 96.09C229.743 95.6967 230.016 95.4 230.363 95.2C230.716 94.9933 231.116 94.89 231.563 94.89C232.183 94.89 232.613 95.0667 232.853 95.42C233.093 95.7667 233.16 96.2733 233.053 96.94L232.573 100H231.763L232.243 96.95C232.323 96.45 232.28 96.0933 232.113 95.88C231.953 95.66 231.673 95.55 231.273 95.55C230.8 95.55 230.41 95.6933 230.103 95.98C229.796 96.2667 229.606 96.6433 229.533 97.11L229.073 100H228.263ZM236.012 102.23C235.586 102.23 235.199 102.177 234.852 102.07C234.506 101.963 234.202 101.8 233.942 101.58L234.232 100.97C234.412 101.117 234.596 101.233 234.782 101.32C234.969 101.407 235.166 101.47 235.372 101.51C235.579 101.557 235.802 101.58 236.042 101.58C236.549 101.58 236.946 101.45 237.232 101.19C237.519 100.93 237.702 100.56 237.782 100.08L238.012 98.61H238.122C237.962 99.0033 237.706 99.3133 237.352 99.54C237.006 99.7667 236.606 99.88 236.152 99.88C235.692 99.88 235.302 99.7733 234.982 99.56C234.669 99.34 234.446 99.0333 234.312 98.64C234.186 98.2467 234.162 97.7867 234.242 97.26C234.369 96.4933 234.662 95.9067 235.122 95.5C235.589 95.0933 236.156 94.89 236.822 94.89C237.282 94.89 237.662 95.0033 237.962 95.23C238.262 95.4567 238.439 95.77 238.492 96.17L238.412 96.07L238.682 94.98H239.462C239.409 95.1733 239.359 95.37 239.312 95.57C239.266 95.7633 239.229 95.9533 239.202 96.14L238.592 99.97C238.479 100.717 238.206 101.28 237.772 101.66C237.339 102.04 236.752 102.23 236.012 102.23ZM236.342 99.23C236.829 99.23 237.236 99.07 237.562 98.75C237.896 98.4233 238.106 97.97 238.192 97.39C238.286 96.7967 238.216 96.34 237.982 96.02C237.749 95.7 237.392 95.54 236.912 95.54C236.426 95.54 236.016 95.7 235.682 96.02C235.349 96.34 235.136 96.7933 235.042 97.38C234.949 97.9667 235.019 98.4233 235.252 98.75C235.492 99.07 235.856 99.23 236.342 99.23ZM242.415 102.16L243.365 96.14C243.392 95.9533 243.412 95.7633 243.425 95.57C243.445 95.37 243.459 95.1733 243.465 94.98H244.255L244.165 96.17H244.025C244.199 95.7767 244.452 95.4667 244.785 95.24C245.125 95.0067 245.532 94.89 246.005 94.89C246.472 94.89 246.859 95 247.165 95.22C247.479 95.4333 247.699 95.7433 247.825 96.15C247.952 96.55 247.969 97.0367 247.875 97.61C247.749 98.4167 247.452 99.0333 246.985 99.46C246.519 99.88 245.959 100.09 245.305 100.09C244.859 100.09 244.485 99.9767 244.185 99.75C243.892 99.5233 243.712 99.2133 243.645 98.82H243.755L243.225 102.16H242.415ZM245.235 99.43C245.702 99.43 246.099 99.2667 246.425 98.94C246.752 98.6133 246.965 98.1367 247.065 97.51C247.172 96.8567 247.109 96.3667 246.875 96.04C246.642 95.7067 246.279 95.54 245.785 95.54C245.325 95.54 244.929 95.7033 244.595 96.03C244.262 96.3567 244.045 96.8333 243.945 97.46C243.845 98.1133 243.912 98.6067 244.145 98.94C244.385 99.2667 244.749 99.43 245.235 99.43ZM248.751 100L249.361 96.14C249.388 95.9533 249.408 95.7633 249.421 95.57C249.441 95.37 249.455 95.1733 249.461 94.98H250.251L250.171 96.08L250.031 96.09C250.231 95.6967 250.505 95.4 250.851 95.2C251.205 94.9933 251.605 94.89 252.051 94.89C252.671 94.89 253.101 95.0667 253.341 95.42C253.581 95.7667 253.648 96.2733 253.541 96.94L253.061 100H252.251L252.731 96.95C252.811 96.45 252.768 96.0933 252.601 95.88C252.441 95.66 252.161 95.55 251.761 95.55C251.288 95.55 250.898 95.6933 250.591 95.98C250.285 96.2667 250.095 96.6433 250.021 97.11L249.561 100H248.751ZM256.501 102.23C256.074 102.23 255.687 102.177 255.341 102.07C254.994 101.963 254.691 101.8 254.431 101.58L254.721 100.97C254.901 101.117 255.084 101.233 255.271 101.32C255.457 101.407 255.654 101.47 255.861 101.51C256.067 101.557 256.291 101.58 256.531 101.58C257.037 101.58 257.434 101.45 257.721 101.19C258.007 100.93 258.191 100.56 258.271 100.08L258.501 98.61H258.611C258.451 99.0033 258.194 99.3133 257.841 99.54C257.494 99.7667 257.094 99.88 256.641 99.88C256.181 99.88 255.791 99.7733 255.471 99.56C255.157 99.34 254.934 99.0333 254.801 98.64C254.674 98.2467 254.651 97.7867 254.731 97.26C254.857 96.4933 255.151 95.9067 255.611 95.5C256.077 95.0933 256.644 94.89 257.311 94.89C257.771 94.89 258.151 95.0033 258.451 95.23C258.751 95.4567 258.927 95.77 258.981 96.17L258.901 96.07L259.171 94.98H259.951C259.897 95.1733 259.847 95.37 259.801 95.57C259.754 95.7633 259.717 95.9533 259.691 96.14L259.081 99.97C258.967 100.717 258.694 101.28 258.261 101.66C257.827 102.04 257.241 102.23 256.501 102.23ZM256.831 99.23C257.317 99.23 257.724 99.07 258.051 98.75C258.384 98.4233 258.594 97.97 258.681 97.39C258.774 96.7967 258.704 96.34 258.471 96.02C258.237 95.7 257.881 95.54 257.401 95.54C256.914 95.54 256.504 95.7 256.171 96.02C255.837 96.34 255.624 96.7933 255.531 97.38C255.437 97.9667 255.507 98.4233 255.741 98.75C255.981 99.07 256.344 99.23 256.831 99.23ZM260.756 101.14L260.426 100.79C260.626 100.61 260.759 100.447 260.826 100.3C260.899 100.16 260.949 100.003 260.976 99.83L261.206 100H260.466L260.636 98.98H261.656L261.526 99.78C261.499 99.96 261.459 100.127 261.406 100.28C261.353 100.433 261.276 100.58 261.176 100.72C261.076 100.86 260.936 101 260.756 101.14ZM264.509 102.2C264.416 102.2 264.302 102.19 264.169 102.17C264.036 102.15 263.922 102.12 263.829 102.08L263.949 101.4C264.022 101.427 264.112 101.45 264.219 101.47C264.319 101.497 264.412 101.51 264.499 101.51C264.779 101.51 265.002 101.42 265.169 101.24C265.336 101.067 265.449 100.78 265.509 100.38L266.369 94.98H267.179L266.309 100.46C266.216 101.033 266.019 101.467 265.719 101.76C265.419 102.053 265.016 102.2 264.509 102.2ZM266.449 93.84L266.599 92.93H267.589L267.449 93.84H266.449ZM267.562 102.16L268.512 96.14C268.538 95.9533 268.558 95.7633 268.572 95.57C268.592 95.37 268.605 95.1733 268.612 94.98H269.402L269.312 96.17H269.172C269.345 95.7767 269.598 95.4667 269.932 95.24C270.272 95.0067 270.678 94.89 271.152 94.89C271.618 94.89 272.005 95 272.312 95.22C272.625 95.4333 272.845 95.7433 272.972 96.15C273.098 96.55 273.115 97.0367 273.022 97.61C272.895 98.4167 272.598 99.0333 272.132 99.46C271.665 99.88 271.105 100.09 270.452 100.09C270.005 100.09 269.632 99.9767 269.332 99.75C269.038 99.5233 268.858 99.2133 268.792 98.82H268.902L268.372 102.16H267.562ZM270.382 99.43C270.848 99.43 271.245 99.2667 271.572 98.94C271.898 98.6133 272.112 98.1367 272.212 97.51C272.318 96.8567 272.255 96.3667 272.022 96.04C271.788 95.7067 271.425 95.54 270.932 95.54C270.472 95.54 270.075 95.7033 269.742 96.03C269.408 96.3567 269.192 96.8333 269.092 97.46C268.992 98.1133 269.058 98.6067 269.292 98.94C269.532 99.2667 269.895 99.43 270.382 99.43ZM275.788 102.23C275.361 102.23 274.974 102.177 274.628 102.07C274.281 101.963 273.978 101.8 273.718 101.58L274.008 100.97C274.188 101.117 274.371 101.233 274.558 101.32C274.744 101.407 274.941 101.47 275.148 101.51C275.354 101.557 275.578 101.58 275.818 101.58C276.324 101.58 276.721 101.45 277.008 101.19C277.294 100.93 277.478 100.56 277.558 100.08L277.788 98.61H277.898C277.738 99.0033 277.481 99.3133 277.128 99.54C276.781 99.7667 276.381 99.88 275.928 99.88C275.468 99.88 275.078 99.7733 274.758 99.56C274.444 99.34 274.221 99.0333 274.088 98.64C273.961 98.2467 273.938 97.7867 274.018 97.26C274.144 96.4933 274.438 95.9067 274.898 95.5C275.364 95.0933 275.931 94.89 276.598 94.89C277.058 94.89 277.438 95.0033 277.738 95.23C278.038 95.4567 278.214 95.77 278.268 96.17L278.188 96.07L278.458 94.98H279.238C279.184 95.1733 279.134 95.37 279.088 95.57C279.041 95.7633 279.004 95.9533 278.978 96.14L278.368 99.97C278.254 100.717 277.981 101.28 277.548 101.66C277.114 102.04 276.528 102.23 275.788 102.23ZM276.118 99.23C276.604 99.23 277.011 99.07 277.338 98.75C277.671 98.4233 277.881 97.97 277.968 97.39C278.061 96.7967 277.991 96.34 277.758 96.02C277.524 95.7 277.168 95.54 276.688 95.54C276.201 95.54 275.791 95.7 275.458 96.02C275.124 96.34 274.911 96.7933 274.818 97.38C274.724 97.9667 274.794 98.4233 275.028 98.75C275.268 99.07 275.631 99.23 276.118 99.23ZM280.043 101.14L279.713 100.79C279.913 100.61 280.047 100.447 280.113 100.3C280.187 100.16 280.237 100.003 280.263 99.83L280.493 100H279.753L279.923 98.98H280.943L280.813 99.78C280.787 99.96 280.747 100.127 280.693 100.28C280.64 100.433 280.563 100.58 280.463 100.72C280.363 100.86 280.223 101 280.043 101.14ZM283.796 102.2C283.703 102.2 283.589 102.19 283.456 102.17C283.323 102.15 283.209 102.12 283.116 102.08L283.236 101.4C283.309 101.427 283.399 101.45 283.506 101.47C283.606 101.497 283.699 101.51 283.786 101.51C284.066 101.51 284.289 101.42 284.456 101.24C284.623 101.067 284.736 100.78 284.796 100.38L285.656 94.98H286.466L285.596 100.46C285.503 101.033 285.306 101.467 285.006 101.76C284.706 102.053 284.303 102.2 283.796 102.2ZM285.736 93.84L285.886 92.93H286.876L286.736 93.84H285.736ZM286.849 102.16L287.799 96.14C287.825 95.9533 287.845 95.7633 287.859 95.57C287.879 95.37 287.892 95.1733 287.899 94.98H288.689L288.599 96.17H288.459C288.632 95.7767 288.885 95.4667 289.219 95.24C289.559 95.0067 289.965 94.89 290.439 94.89C290.905 94.89 291.292 95 291.599 95.22C291.912 95.4333 292.132 95.7433 292.259 96.15C292.385 96.55 292.402 97.0367 292.309 97.61C292.182 98.4167 291.885 99.0333 291.419 99.46C290.952 99.88 290.392 100.09 289.739 100.09C289.292 100.09 288.919 99.9767 288.619 99.75C288.325 99.5233 288.145 99.2133 288.079 98.82H288.189L287.659 102.16H286.849ZM289.669 99.43C290.135 99.43 290.532 99.2667 290.859 98.94C291.185 98.6133 291.399 98.1367 291.499 97.51C291.605 96.8567 291.542 96.3667 291.309 96.04C291.075 95.7067 290.712 95.54 290.219 95.54C289.759 95.54 289.362 95.7033 289.029 96.03C288.695 96.3567 288.479 96.8333 288.379 97.46C288.279 98.1133 288.345 98.6067 288.579 98.94C288.819 99.2667 289.182 99.43 289.669 99.43ZM295.525 100.09C294.972 100.09 294.512 99.98 294.145 99.76C293.785 99.5333 293.532 99.2133 293.385 98.8C293.238 98.38 293.208 97.89 293.295 97.33C293.382 96.8167 293.542 96.38 293.775 96.02C294.015 95.6533 294.318 95.3733 294.685 95.18C295.058 94.9867 295.482 94.89 295.955 94.89C296.415 94.89 296.795 94.99 297.095 95.19C297.402 95.39 297.615 95.67 297.735 96.03C297.862 96.3833 297.888 96.7967 297.815 97.27L297.775 97.56H293.885L293.965 97.05H297.325L297.145 97.19C297.225 96.6433 297.162 96.2233 296.955 95.93C296.748 95.6367 296.402 95.49 295.915 95.49C295.562 95.49 295.258 95.57 295.005 95.73C294.752 95.8833 294.548 96.0967 294.395 96.37C294.242 96.6367 294.138 96.94 294.085 97.28L294.055 97.52C293.968 98.1333 294.055 98.6067 294.315 98.94C294.582 99.2667 295.012 99.43 295.605 99.43C295.898 99.43 296.185 99.3867 296.465 99.3C296.745 99.2067 297.005 99.0567 297.245 98.85L297.525 99.42C297.258 99.6333 296.952 99.8 296.605 99.92C296.258 100.033 295.898 100.09 295.525 100.09ZM300.514 102.23C300.088 102.23 299.701 102.177 299.354 102.07C299.008 101.963 298.704 101.8 298.444 101.58L298.734 100.97C298.914 101.117 299.098 101.233 299.284 101.32C299.471 101.407 299.668 101.47 299.874 101.51C300.081 101.557 300.304 101.58 300.544 101.58C301.051 101.58 301.448 101.45 301.734 101.19C302.021 100.93 302.204 100.56 302.284 100.08L302.514 98.61H302.624C302.464 99.0033 302.208 99.3133 301.854 99.54C301.508 99.7667 301.108 99.88 300.654 99.88C300.194 99.88 299.804 99.7733 299.484 99.56C299.171 99.34 298.948 99.0333 298.814 98.64C298.688 98.2467 298.664 97.7867 298.744 97.26C298.871 96.4933 299.164 95.9067 299.624 95.5C300.091 95.0933 300.658 94.89 301.324 94.89C301.784 94.89 302.164 95.0033 302.464 95.23C302.764 95.4567 302.941 95.77 302.994 96.17L302.914 96.07L303.184 94.98H303.964C303.911 95.1733 303.861 95.37 303.814 95.57C303.768 95.7633 303.731 95.9533 303.704 96.14L303.094 99.97C302.981 100.717 302.708 101.28 302.274 101.66C301.841 102.04 301.254 102.23 300.514 102.23ZM300.844 99.23C301.331 99.23 301.738 99.07 302.064 98.75C302.398 98.4233 302.608 97.97 302.694 97.39C302.788 96.7967 302.718 96.34 302.484 96.02C302.251 95.7 301.894 95.54 301.414 95.54C300.928 95.54 300.518 95.7 300.184 96.02C299.851 96.34 299.638 96.7933 299.544 97.38C299.451 97.9667 299.521 98.4233 299.754 98.75C299.994 99.07 300.358 99.23 300.844 99.23ZM304.49 100L304.65 98.98H305.68L305.51 100H304.49ZM311.333 100L312.333 93.65H309.853L309.963 92.95H315.763L315.643 93.65H313.163L312.163 100H311.333ZM314.364 102.27L314.214 101.6C314.54 101.527 314.817 101.44 315.044 101.34C315.27 101.247 315.467 101.12 315.634 100.96C315.8 100.8 315.957 100.6 316.104 100.36L316.444 99.77L316.404 100.11L315.024 94.98H315.874L316.984 99.39H316.724L319.224 94.98H320.094L316.924 100.42C316.73 100.74 316.537 101.007 316.344 101.22C316.157 101.44 315.96 101.617 315.754 101.75C315.547 101.89 315.33 102 315.104 102.08C314.877 102.16 314.63 102.223 314.364 102.27ZM317.314 94.49L317.344 94.28C317.37 94.1267 317.42 94 317.494 93.9C317.567 93.8 317.647 93.7133 317.734 93.64C317.827 93.56 317.904 93.4833 317.964 93.41C318.03 93.3367 318.064 93.25 318.064 93.15C318.064 93.0633 318.027 93 317.954 92.96C317.887 92.92 317.777 92.9 317.624 92.9C317.524 92.9 317.42 92.9133 317.314 92.94C317.214 92.96 317.1 92.9967 316.974 93.05L316.874 92.63C317.007 92.55 317.154 92.4933 317.314 92.46C317.474 92.4267 317.64 92.41 317.814 92.41C318.107 92.41 318.334 92.4667 318.494 92.58C318.654 92.6867 318.734 92.8367 318.734 93.03C318.734 93.21 318.694 93.3533 318.614 93.46C318.54 93.5667 318.454 93.66 318.354 93.74C318.254 93.8133 318.157 93.8933 318.064 93.98C317.977 94.0667 317.92 94.1833 317.894 94.33L317.864 94.49H317.314ZM322.824 100L323.994 92.64H324.804L323.634 100H322.824ZM327.546 100.09C326.993 100.09 326.533 99.98 326.166 99.76C325.806 99.5333 325.553 99.2133 325.406 98.8C325.26 98.38 325.23 97.89 325.316 97.33C325.403 96.8167 325.563 96.38 325.796 96.02C326.036 95.6533 326.34 95.3733 326.706 95.18C327.08 94.9867 327.503 94.89 327.976 94.89C328.436 94.89 328.816 94.99 329.116 95.19C329.423 95.39 329.636 95.67 329.756 96.03C329.883 96.3833 329.91 96.7967 329.836 97.27L329.796 97.56H325.906L325.986 97.05H329.346L329.166 97.19C329.246 96.6433 329.183 96.2233 328.976 95.93C328.77 95.6367 328.423 95.49 327.936 95.49C327.583 95.49 327.28 95.57 327.026 95.73C326.773 95.8833 326.57 96.0967 326.416 96.37C326.263 96.6367 326.16 96.94 326.106 97.28L326.076 97.52C325.99 98.1333 326.076 98.6067 326.336 98.94C326.603 99.2667 327.033 99.43 327.626 99.43C327.92 99.43 328.206 99.3867 328.486 99.3C328.766 99.2067 329.026 99.0567 329.266 98.85L329.546 99.42C329.28 99.6333 328.973 99.8 328.626 99.92C328.28 100.033 327.92 100.09 327.546 100.09ZM326.556 101.87L326.696 100.99H327.606L327.466 101.87H326.556ZM326.646 94.49L327.956 92.47H328.726L329.616 94.49H329.056L328.306 93.01L327.216 94.49H326.646ZM335.513 100.09C335.04 100.09 334.597 100.017 334.183 99.87C333.777 99.7233 333.443 99.5133 333.183 99.24L333.533 98.6C333.82 98.8667 334.13 99.06 334.463 99.18C334.797 99.3 335.157 99.36 335.543 99.36C336.05 99.36 336.457 99.26 336.763 99.06C337.077 98.86 337.267 98.5333 337.333 98.08C337.467 97.2067 336.99 96.77 335.903 96.77H334.823L334.933 96.08H335.923C336.39 96.08 336.78 95.9667 337.093 95.74C337.407 95.5133 337.597 95.1933 337.663 94.78C337.723 94.3933 337.64 94.1 337.413 93.9C337.187 93.6933 336.84 93.59 336.373 93.59C335.98 93.59 335.61 93.6533 335.263 93.78C334.923 93.9 334.587 94.0933 334.253 94.36L333.963 93.72C334.29 93.44 334.67 93.2267 335.103 93.08C335.543 92.9333 335.993 92.86 336.453 92.86C337.173 92.86 337.713 93.0267 338.073 93.36C338.433 93.6933 338.567 94.1633 338.473 94.77C338.413 95.1633 338.237 95.5167 337.943 95.83C337.65 96.1367 337.283 96.3433 336.843 96.45L336.853 96.34C337.333 96.42 337.683 96.6267 337.903 96.96C338.13 97.2867 338.203 97.7033 338.123 98.21C338.037 98.8233 337.757 99.29 337.283 99.61C336.817 99.93 336.227 100.09 335.513 100.09ZM342.319 100L342.559 98.47H339.189L339.289 97.87L343.559 92.95H344.249L343.469 97.8H344.559L344.449 98.47H343.359L343.129 100H342.319ZM342.669 97.8L343.289 93.93H343.549L340.009 98.01L339.989 97.8H342.669ZM347.505 100.09C347.032 100.09 346.589 100.017 346.175 99.87C345.769 99.7233 345.435 99.5133 345.175 99.24L345.525 98.6C345.812 98.8667 346.122 99.06 346.455 99.18C346.789 99.3 347.149 99.36 347.535 99.36C348.042 99.36 348.449 99.26 348.755 99.06C349.069 98.86 349.259 98.5333 349.325 98.08C349.459 97.2067 348.982 96.77 347.895 96.77H346.815L346.925 96.08H347.915C348.382 96.08 348.772 95.9667 349.085 95.74C349.399 95.5133 349.589 95.1933 349.655 94.78C349.715 94.3933 349.632 94.1 349.405 93.9C349.179 93.6933 348.832 93.59 348.365 93.59C347.972 93.59 347.602 93.6533 347.255 93.78C346.915 93.9 346.579 94.0933 346.245 94.36L345.955 93.72C346.282 93.44 346.662 93.2267 347.095 93.08C347.535 92.9333 347.985 92.86 348.445 92.86C349.165 92.86 349.705 93.0267 350.065 93.36C350.425 93.6933 350.559 94.1633 350.465 94.77C350.405 95.1633 350.229 95.5167 349.935 95.83C349.642 96.1367 349.275 96.3433 348.835 96.45L348.845 96.34C349.325 96.42 349.675 96.6267 349.895 96.96C350.122 97.2867 350.195 97.7033 350.115 98.21C350.029 98.8233 349.749 99.29 349.275 99.61C348.809 99.93 348.219 100.09 347.505 100.09ZM350.532 100L353.232 97.21L353.222 97.61L351.502 94.98H352.422L353.712 97.03H353.422L355.342 94.98H356.362L353.842 97.6L353.862 97.23L355.652 100H354.702L353.332 97.81H353.632L351.552 100H350.532ZM357.073 100L357.193 99.29H358.843L359.743 93.66L360.173 93.67L358.043 94.88L358.173 94.04L360.083 92.95H360.683L359.673 99.29H361.233L361.123 100H357.073ZM363.069 100L363.189 99.29H364.839L365.739 93.66L366.169 93.67L364.039 94.88L364.169 94.04L366.079 92.95H366.679L365.669 99.29H367.229L367.119 100H363.069ZM368.875 100L373.415 93.3L373.395 93.66H369.445L369.575 92.95H374.265L374.165 93.57L369.835 100H368.875ZM244.242 120L245.362 112.95H248.232C248.958 112.95 249.495 113.113 249.842 113.44C250.188 113.767 250.315 114.233 250.222 114.84C250.148 115.293 249.958 115.66 249.652 115.94C249.345 116.213 248.952 116.397 248.472 116.49L248.492 116.35C248.998 116.41 249.372 116.603 249.612 116.93C249.858 117.25 249.942 117.66 249.862 118.16C249.768 118.773 249.492 119.233 249.032 119.54C248.578 119.847 247.972 120 247.212 120H244.242ZM245.152 119.33H247.222C247.728 119.33 248.145 119.237 248.472 119.05C248.798 118.857 248.992 118.553 249.052 118.14C249.112 117.793 249.088 117.52 248.982 117.32C248.882 117.12 248.722 116.977 248.502 116.89C248.282 116.803 248.012 116.76 247.692 116.76H245.552L245.152 119.33ZM245.662 116.1H247.572C248.118 116.1 248.542 116 248.842 115.8C249.148 115.593 249.328 115.307 249.382 114.94C249.455 114.493 249.382 114.16 249.162 113.94C248.942 113.72 248.588 113.61 248.102 113.61H246.052L245.662 116.1ZM252.929 120.09C252.469 120.09 252.082 119.983 251.769 119.77C251.455 119.55 251.235 119.237 251.109 118.83C250.982 118.423 250.962 117.933 251.049 117.36C251.182 116.553 251.482 115.94 251.949 115.52C252.415 115.1 252.975 114.89 253.629 114.89C254.069 114.89 254.439 115.003 254.739 115.23C255.039 115.457 255.222 115.763 255.289 116.15L255.179 116.17L255.469 114.98H256.249C256.202 115.173 256.152 115.37 256.099 115.57C256.052 115.763 256.015 115.953 255.989 116.14L255.379 120H254.569L254.759 118.8H254.909C254.735 119.2 254.479 119.517 254.139 119.75C253.805 119.977 253.402 120.09 252.929 120.09ZM253.149 119.43C253.609 119.43 254.005 119.267 254.339 118.94C254.672 118.613 254.889 118.137 254.989 117.51C255.095 116.857 255.029 116.367 254.789 116.04C254.549 115.707 254.185 115.54 253.699 115.54C253.232 115.54 252.832 115.703 252.499 116.03C252.172 116.357 251.959 116.833 251.859 117.46C251.759 118.113 251.825 118.607 252.059 118.94C252.292 119.267 252.655 119.43 253.149 119.43ZM254.019 114.53C253.572 114.53 253.212 114.397 252.939 114.13C252.672 113.863 252.545 113.497 252.559 113.03L253.019 112.98C253.025 113.307 253.115 113.56 253.289 113.74C253.469 113.92 253.719 114.01 254.039 114.01C254.365 114.01 254.629 113.92 254.829 113.74C255.035 113.56 255.169 113.307 255.229 112.98L255.699 113.03C255.625 113.497 255.439 113.863 255.139 114.13C254.845 114.397 254.472 114.53 254.019 114.53ZM253.729 113.39L254.709 111.97H255.559L254.289 113.39H253.729ZM258.795 120.09C258.255 120.09 257.875 119.947 257.655 119.66C257.441 119.373 257.378 118.947 257.465 118.38L257.895 115.61H256.915L257.015 114.98H258.005L258.225 113.61L259.065 113.38L258.815 114.98H260.255L260.145 115.61H258.705L258.295 118.28C258.228 118.673 258.248 118.96 258.355 119.14C258.468 119.313 258.661 119.4 258.935 119.4C259.061 119.4 259.175 119.39 259.275 119.37C259.375 119.343 259.468 119.313 259.555 119.28L259.455 119.96C259.348 120 259.241 120.03 259.135 120.05C259.028 120.077 258.915 120.09 258.795 120.09ZM265.598 120.09C265.152 120.09 264.778 119.977 264.478 119.75C264.185 119.523 264.005 119.213 263.938 118.82L264.038 118.8L263.848 120H263.048L264.218 112.64H265.028L264.468 116.15L264.318 116.17C264.492 115.777 264.745 115.467 265.078 115.24C265.418 115.007 265.825 114.89 266.298 114.89C266.765 114.89 267.152 115 267.458 115.22C267.772 115.433 267.992 115.743 268.118 116.15C268.245 116.55 268.262 117.037 268.168 117.61C268.042 118.417 267.745 119.033 267.278 119.46C266.812 119.88 266.252 120.09 265.598 120.09ZM265.528 119.43C265.995 119.43 266.392 119.267 266.718 118.94C267.045 118.613 267.258 118.137 267.358 117.51C267.465 116.857 267.402 116.367 267.168 116.04C266.935 115.707 266.572 115.54 266.078 115.54C265.618 115.54 265.222 115.703 264.888 116.03C264.555 116.357 264.338 116.833 264.238 117.46C264.138 118.113 264.205 118.607 264.438 118.94C264.678 119.267 265.042 119.43 265.528 119.43ZM270.884 120.09C270.298 120.09 269.864 119.923 269.584 119.59C269.304 119.257 269.218 118.74 269.324 118.04L269.804 114.98H270.614L270.134 118C270.061 118.5 270.104 118.863 270.264 119.09C270.424 119.31 270.704 119.42 271.104 119.42C271.558 119.42 271.931 119.277 272.224 118.99C272.518 118.697 272.701 118.31 272.774 117.83L273.224 114.98H274.034L273.244 120H272.454L272.624 118.87H272.774C272.588 119.257 272.328 119.557 271.994 119.77C271.668 119.983 271.298 120.09 270.884 120.09ZM276.946 120.09C276.446 120.09 276.029 119.983 275.696 119.77C275.362 119.557 275.126 119.247 274.986 118.84C274.852 118.433 274.829 117.94 274.916 117.36C275.002 116.827 275.169 116.377 275.416 116.01C275.669 115.637 275.982 115.357 276.356 115.17C276.729 114.983 277.149 114.89 277.616 114.89C278.122 114.89 278.539 114.997 278.866 115.21C279.199 115.423 279.432 115.733 279.566 116.14C279.706 116.54 279.729 117.03 279.636 117.61C279.549 118.143 279.379 118.597 279.126 118.97C278.879 119.337 278.569 119.617 278.196 119.81C277.829 119.997 277.412 120.09 276.946 120.09ZM277.006 119.43C277.466 119.43 277.859 119.267 278.186 118.94C278.519 118.613 278.736 118.137 278.836 117.51C278.942 116.857 278.876 116.367 278.636 116.04C278.396 115.707 278.036 115.54 277.556 115.54C277.089 115.54 276.692 115.703 276.366 116.03C276.039 116.357 275.826 116.833 275.726 117.46C275.626 118.113 275.689 118.607 275.916 118.94C276.149 119.267 276.512 119.43 277.006 119.43ZM276.136 121.87L276.276 120.99H277.186L277.046 121.87H276.136ZM276.256 114.49L277.566 112.47H278.336L279.226 114.49H278.666L277.916 113.01L276.826 114.49H276.256ZM282.719 120.09C282.219 120.09 281.795 119.983 281.449 119.77C281.102 119.55 280.855 119.237 280.709 118.83C280.569 118.417 280.542 117.927 280.629 117.36C280.762 116.553 281.072 115.94 281.559 115.52C282.045 115.1 282.642 114.89 283.349 114.89C283.669 114.89 283.969 114.94 284.249 115.04C284.535 115.14 284.769 115.287 284.949 115.48L284.629 116.04C284.455 115.873 284.255 115.75 284.029 115.67C283.809 115.59 283.592 115.55 283.379 115.55C282.879 115.55 282.455 115.71 282.109 116.03C281.769 116.35 281.549 116.82 281.449 117.44C281.349 118.073 281.422 118.563 281.669 118.91C281.922 119.25 282.305 119.42 282.819 119.42C283.052 119.42 283.295 119.377 283.549 119.29C283.802 119.203 284.035 119.06 284.249 118.86L284.539 119.44C284.325 119.64 284.049 119.8 283.709 119.92C283.375 120.033 283.045 120.09 282.719 120.09Z" fill="black"/>
<path d="M289.437 116.34L288.957 115.99L290.047 114.73L288.517 114.26L288.737 113.69L290.217 114.25L290.297 112.64H290.907L290.727 114.25L292.287 113.69L292.437 114.26L290.847 114.73L291.737 115.99L291.257 116.34L290.467 115L289.437 116.34Z" fill="#FF0000"/>
</svg>
